HIERARCHY
ROOT root
{
	OFFSET 0.000000 0.000000 0.000000
	CHANNELS 6 Xposition Yposition Zposition Zrotation Yrotation Xrotation
	JOINT lhip
	{
		OFFSET 0.058581 -0.082280 -0.017664
		CHANNELS 3 Zrotation Yrotation Xrotation
		JOINT lknee
		{
			OFFSET 0.043451 -0.386469 0.008037
			CHANNELS 3 Zrotation Yrotation Xrotation
			JOINT lankle
			{
				OFFSET -0.014790 -0.426874 -0.037428
				CHANNELS 3 Zrotation Yrotation Xrotation
				JOINT ltoe
				{
					OFFSET 0.041054 -0.060286 0.122042
					CHANNELS 3 Zrotation Yrotation Xrotation
					End Site
					{
						OFFSET 0.000000 0.000000 0.000000
					}
				}
			}
		}
	}
	JOINT rhip
	{
		OFFSET -0.060310 -0.090513 -0.013543
		CHANNELS 3 Zrotation Yrotation Xrotation
		JOINT rknee
		{
			OFFSET -0.043257 -0.383688 -0.004843
			CHANNELS 3 Zrotation Yrotation Xrotation
			JOINT rankle
			{
				OFFSET 0.019056 -0.420046 -0.034562
				CHANNELS 3 Zrotation Yrotation Xrotation
				JOINT rtoe
				{
					OFFSET -0.034840 -0.062106 0.130323
					CHANNELS 3 Zrotation Yrotation Xrotation
					End Site
					{
						OFFSET 0.000000 0.000000 0.000000
					}
				}
			}
		}
	}
	JOINT lowerback
	{
		OFFSET 0.004439 0.124404 -0.038385
		CHANNELS 3 Zrotation Yrotation Xrotation
		JOINT upperback
		{
			OFFSET 0.004488 0.137956 0.026820
			CHANNELS 3 Zrotation Yrotation Xrotation
			JOINT chest
			{
				OFFSET -0.002265 0.056032 0.002855
				CHANNELS 3 Zrotation Yrotation Xrotation
				JOINT lowerneck
				{
					OFFSET -0.013390 0.211636 -0.033468
					CHANNELS 3 Zrotation Yrotation Xrotation
					JOINT upperneck
					{
						OFFSET 0.010113 0.088937 0.050410
						CHANNELS 3 Zrotation Yrotation Xrotation
						End Site
						{
							OFFSET 0.000000 0.000000 0.000000
						}
					}
				}
				JOINT lclavicle
				{
					OFFSET 0.071702 0.114000 -0.018898
					CHANNELS 3 Zrotation Yrotation Xrotation
					JOINT lshoulder
					{
						OFFSET 0.122921 0.045205 -0.019046
						CHANNELS 3 Zrotation Yrotation Xrotation
						JOINT lelbow
						{
							OFFSET 0.255332 -0.015649 -0.022946
							CHANNELS 3 Zrotation Yrotation Xrotation
							JOINT lwrist
							{
								OFFSET 0.265709 0.012698 -0.007375
								CHANNELS 3 Zrotation Yrotation Xrotation
								End Site
								{
									OFFSET 0.000000 0.000000 0.000000
								}
							}
						}
					}
				}
				JOINT rclavicle
				{
					OFFSET -0.082954 0.112472 -0.023707
					CHANNELS 3 Zrotation Yrotation Xrotation
					JOINT rshoulder
					{
						OFFSET -0.113228 0.046853 -0.008472
						CHANNELS 3 Zrotation Yrotation Xrotation
						JOINT relbow
						{
							OFFSET -0.260127 -0.014369 -0.031269
							CHANNELS 3 Zrotation Yrotation Xrotation
							JOINT rwrist
							{
								OFFSET -0.269108 0.006794 -0.006027
								CHANNELS 3 Zrotation Yrotation Xrotation
								End Site
								{
									OFFSET 0.000000 0.000000 0.000000
								}
							}
						}
					}
				}
			}
		}
	}
}
MOTION
Frames: 8
Frame Time: 0.033333
0.158894 0.174822 0.895788 89.364859 -0.146577 83.308739 8.351158 5.622053 -14.780882 -4.697629 0.185596 48.450308 4.209909 7.394306 -26.431773 0.000000 -0.000000 0.000000 -8.618519 -3.027966 -18.800495 -0.180730 -2.545965 54.174045 1.878016 -5.351613 -27.333980 0.000000 -0.000000 0.000000 -3.576520 2.115813 7.402465 2.514089 -3.070184 1.238150 -0.022198 2.879550 -0.352698 6.393822 3.402536 2.417834 2.194355 -7.759232 5.759354 0.844054 -31.227523 -17.241575 -26.013137 -46.096525 -1.647446 10.836414 -27.996304 1.493799 -32.454619 -13.578138 2.705498 -0.370986 29.236750 -11.433062 24.857591 43.604335 -4.218127 -25.743000 31.787938 -6.135530 40.733628 2.475892 -7.314402 
0.158875 0.174796 0.895945 89.331070 -0.139690 83.341887 8.382442 5.648697 -14.786358 -4.717028 0.235130 48.390404 4.202660 7.367937 -26.427230 0.000000 -0.000000 0.000000 -8.607754 -3.024176 -18.817980 -0.180721 -2.548769 54.104184 1.848396 -5.314437 -27.294945 0.000000 -0.000000 0.000000 -3.614010 2.115783 7.332787 2.532888 -3.082050 1.260745 0.002377 2.872790 -0.348247 6.433900 3.439650 2.474254 2.181122 -7.745102 5.732118 0.860245 -31.184809 -17.213616 -26.052051 -46.111126 -1.619851 10.841990 -27.979267 1.580327 -32.317979 -13.648648 2.681449 -0.371222 29.181502 -11.480362 24.938031 43.734270 -4.162153 -25.602687 31.690158 -5.992790 40.460811 2.567758 -7.249253 
0.158942 0.174838 0.896253 89.299342 -0.174651 83.334178 8.372410 5.615935 -14.695776 -4.759164 0.278224 48.275007 4.241531 7.422062 -26.384365 0.000000 -0.000000 0.000000 -8.654350 -3.005258 -18.769137 -0.126725 -2.548387 54.013069 1.849023 -5.343211 -27.278433 0.000000 -0.000000 0.000000 -3.589924 2.131167 7.337320 2.489483 -3.051312 1.324109 -0.048916 2.951732 -0.416277 6.341538 3.298853 2.356875 2.205610 -7.809516 5.778645 0.811062 -31.335425 -17.261393 -26.024644 -46.030518 -1.532461 10.836211 -27.966849 1.389531 -32.627324 -13.566233 2.922233 -0.517744 29.403584 -11.439838 25.051043 43.440591 -3.965770 -26.162362 31.592934 -6.471144 41.075206 2.523918 -7.215688 
0.158944 0.174911 0.896492 89.288818 -0.167353 83.318313 8.385053 5.583967 -14.649214 -4.779612 0.285670 48.225240 4.260942 7.469084 -26.361316 0.000000 -0.000000 0.000000 -8.658378 -2.973702 -18.715072 -0.088845 -2.553969 53.940708 1.846574 -5.379995 -27.229593 0.000000 -0.000000 0.000000 -3.550872 2.123887 7.351161 2.477509 -3.040482 1.344556 -0.074005 2.969240 -0.433625 6.309329 3.221054 2.326474 2.202425 -7.796839 5.805972 0.795145 -31.371632 -17.273800 -26.018062 -46.001122 -1.491033 10.822511 -27.963169 1.259348 -32.738998 -13.471509 3.052480 -0.624253 29.498661 -11.441602 25.161415 43.318839 -3.800461 -26.441570 31.560730 -6.733094 41.377447 2.462758 -7.229157 
0.158955 0.174906 0.896644 89.287240 -0.145377 83.337442 8.412280 5.590583 -14.648908 -4.792878 0.270315 48.191197 4.243666 7.456419 -26.338956 0.000000 -0.000000 0.000000 -8.626327 -2.967522 -18.703271 -0.079994 -2.547862 53.883976 1.854287 -5.385586 -27.207403 0.000000 -0.000000 0.000000 -3.551727 2.134888 7.358219 2.497892 -3.029672 1.290363 -0.060240 2.952968 -0.418349 6.319023 3.225142 2.295421 2.185566 -7.822096 5.836348 0.787595 -31.360588 -17.269066 -26.011472 -46.026388 -1.468499 10.790503 -27.951338 1.312319 -32.756800 -13.491975 3.019689 -0.656986 29.435996 -11.462998 25.178685 43.266940 -3.720216 -26.385558 31.666334 -6.615351 41.322066 2.532445 -7.407839 
0.158970 0.174934 0.896637 89.306729 -0.136414 83.377165 8.415316 5.597306 -14.677628 -4.803353 0.240409 48.177387 4.277737 7.431541 -26.293530 0.000000 -0.000000 0.000000 -8.621233 -2.968932 -18.708812 -0.066753 -2.556037 53.843109 1.860132 -5.411872 -27.194880 0.000000 -0.000000 0.000000 -3.564620 2.149710 7.340104 2.512805 -3.012301 1.221141 -0.054224 2.917760 -0.361475 6.340346 3.264906 2.212958 2.135681 -7.822574 5.912299 0.770900 -31.344222 -17.268535 -25.986665 -46.092961 -1.470544 10.801957 -27.910042 1.332189 -32.860122 -13.561166 2.979002 -0.669072 29.370219 -11.492737 25.178153 43.240412 -3.645838 -26.406441 31.776850 -6.548654 41.333412 2.656555 -7.594733 
0.158932 0.174893 0.896459 89.309430 -0.135616 83.389822 8.409948 5.579663 -14.717907 -4.751726 0.294928 48.236811 4.202903 7.320066 -26.382759 0.000000 -0.000000 0.000000 -8.630421 -2.986530 -18.772595 -0.119102 -2.582867 53.933041 1.900055 -5.301216 -27.188435 0.000000 -0.000000 0.000000 -3.638505 2.125074 7.245312 2.530418 -3.084955 1.283134 -0.018850 2.836897 -0.233066 6.473592 3.497517 2.085470 1.982651 -7.840672 5.935809 0.968364 -31.073808 -17.415405 -26.102067 -46.225907 -1.572878 10.820574 -27.862170 1.475646 -32.618088 -13.669662 2.965760 -0.469780 29.133591 -11.677004 25.127976 43.963401 -4.041677 -25.911475 31.474007 -6.148538 41.458400 2.427539 -7.174512 
0.159035 0.174893 0.896448 89.303685 -0.172185 83.347917 8.386016 5.569815 -14.658625 -4.793740 0.292242 48.220684 4.229365 7.390656 -26.385084 0.000000 -0.000000 0.000000 -8.665051 -2.980731 -18.721742 -0.079896 -2.544623 53.929341 1.886744 -5.370071 -27.223679 0.000000 -0.000000 0.000000 -3.584311 2.130758 7.290953 2.465442 -3.065972 1.366915 -0.082499 2.941218 -0.356173 6.359054 3.374733 2.155966 2.110040 -7.821488 5.873885 0.947249 -31.300491 -17.400747 -25.943973 -46.072397 -1.567417 10.852555 -27.939349 1.329650 -32.630296 -13.584287 3.121032 -0.645625 29.354529 -11.541188 25.050192 43.450482 -3.975285 -26.327187 31.693749 -6.545600 41.503869 2.479883 -7.292457 
